# xmcd
#
# Track frame offsets:
#	150
#	12145
#	25232
#	40799
#	51567
#	62389
#	74994
#	88500
#	103139
#	119149
#	131366
#	144705
#	156639
#	172792
#	184698
#
# Disc length: 2653 seconds
#
# Revision: 1
# Processed by: cddbd v1.5.2PL0 Copyright (c) Steve Scherf et al.
# Submitted via: EasyCDDAExtractor 7.0.3.1
#
DISCID=d90a5b0f
DTITLE=Gabe Nieto - Moonlight, Roses and Wine
DYEAR=1900
DGENRE=Country
TTITLE0=In These Arms Of Mine
TTITLE1=If It Weren't For My Heart
TTITLE2=I'll Put the Moon In the Palm Of Your Hand
TTITLE3=I Said the Wrong Thing At the Right Time
TTITLE4=The Good Old Days 
TTITLE5=Old Hat
TTITLE6=You Never Know Just How Good You've Got It
TTITLE7=Keeping My Head On Straight
TTITLE8=Plans For the Future
TTITLE9=Karoke Kowboy
TTITLE10=The Bluest Brown Eyes In Town
TTITLE11=Moonlight, Roses and Wine
TTITLE12=If All Of the Music Is Gone
TTITLE13=Waltz Across Texas
TTITLE14=Dance Time In Texas
EXTD=
EXTT0=
EXTT1=
EXTT2=
EXTT3=
EXTT4=
EXTT5=
EXTT6=
EXTT7=
EXTT8=
EXTT9=
EXTT10=
EXTT11=
EXTT12=
EXTT13=
EXTT14=
PLAYORDER=
